<svg  spreadMethod="reflect" id="wave1" style="transform:rotate(180deg); " viewBox="0 0 1440 390" version="1.1"
  xmlns="http://www.w3.org/2000/svg">
  <defs>
    <linearGradient id="sw-gradient-0" x1="0" x2="0" y1="1" y2="0">
      <stop stop-color="rgba(0, 45, 95, 1)" offset="0%" />
      <stop stop-color="rgba(0, 45, 95, 1)" offset="100%" />
    </linearGradient>
  </defs>
  <path style="transform:translate(0, 0px); opacity:1" fill="url(#sw-gradient-0)"
    d="M0,78L60,65C120,52,240,26,360,26C480,26,600,52,720,110.5C840,169,960,260,1080,260C1200,260,1320,169,1440,136.5C1560,104,1680,130,1800,130C1920,130,2040,104,2160,123.5C2280,143,2400,208,2520,221C2640,234,2760,195,2880,208C3000,221,3120,286,3240,292.5C3360,299,3480,247,3600,227.5C3720,208,3840,221,3960,195C4080,169,4200,104,4320,91C4440,78,4560,117,4680,136.5C4800,156,4920,156,5040,130C5160,104,5280,52,5400,26C5520,0,5640,0,5760,6.5C5880,13,6000,26,6120,58.5C6240,91,6360,143,6480,182C6600,221,6720,247,6840,247C6960,247,7080,221,7200,221C7320,221,7440,247,7560,266.5C7680,286,7800,299,7920,266.5C8040,234,8160,156,8280,156C8400,156,8520,234,8580,273L8640,312L8640,390L8580,390C8520,390,8400,390,8280,390C8160,390,8040,390,7920,390C7800,390,7680,390,7560,390C7440,390,7320,390,7200,390C7080,390,6960,390,6840,390C6720,390,6600,390,6480,390C6360,390,6240,390,6120,390C6000,390,5880,390,5760,390C5640,390,5520,390,5400,390C5280,390,5160,390,5040,390C4920,390,4800,390,4680,390C4560,390,4440,390,4320,390C4200,390,4080,390,3960,390C3840,390,3720,390,3600,390C3480,390,3360,390,3240,390C3120,390,3000,390,2880,390C2760,390,2640,390,2520,390C2400,390,2280,390,2160,390C2040,390,1920,390,1800,390C1680,390,1560,390,1440,390C1320,390,1200,390,1080,390C960,390,840,390,720,390C600,390,480,390,360,390C240,390,120,390,60,390L0,390Z" />
  <defs>
    <linearGradient id="sw-gradient-1" x1="0" x2="0" y1="1" y2="0">
      <stop stop-color="rgba(0, 88, 185, 1)" offset="0%" />
      <stop stop-color="rgba(0, 88, 185, 1)" offset="100%" />
    </linearGradient>
  </defs>
  <path style="transform:translate(0, 50px); opacity:0.9" fill="url(#sw-gradient-1)"
    d="M0,39L60,52C120,65,240,91,360,117C480,143,600,169,720,175.5C840,182,960,169,1080,143C1200,117,1320,78,1440,52C1560,26,1680,13,1800,19.5C1920,26,2040,52,2160,52C2280,52,2400,26,2520,65C2640,104,2760,208,2880,240.5C3000,273,3120,234,3240,240.5C3360,247,3480,299,3600,325C3720,351,3840,351,3960,299C4080,247,4200,143,4320,97.5C4440,52,4560,65,4680,84.5C4800,104,4920,130,5040,143C5160,156,5280,156,5400,175.5C5520,195,5640,234,5760,214.5C5880,195,6000,117,6120,130C6240,143,6360,247,6480,253.5C6600,260,6720,169,6840,143C6960,117,7080,156,7200,201.5C7320,247,7440,299,7560,299C7680,299,7800,247,7920,188.5C8040,130,8160,65,8280,39C8400,13,8520,26,8580,32.5L8640,39L8640,390L8580,390C8520,390,8400,390,8280,390C8160,390,8040,390,7920,390C7800,390,7680,390,7560,390C7440,390,7320,390,7200,390C7080,390,6960,390,6840,390C6720,390,6600,390,6480,390C6360,390,6240,390,6120,390C6000,390,5880,390,5760,390C5640,390,5520,390,5400,390C5280,390,5160,390,5040,390C4920,390,4800,390,4680,390C4560,390,4440,390,4320,390C4200,390,4080,390,3960,390C3840,390,3720,390,3600,390C3480,390,3360,390,3240,390C3120,390,3000,390,2880,390C2760,390,2640,390,2520,390C2400,390,2280,390,2160,390C2040,390,1920,390,1800,390C1680,390,1560,390,1440,390C1320,390,1200,390,1080,390C960,390,840,390,720,390C600,390,480,390,360,390C240,390,120,390,60,390L0,390Z" />
</svg>